<svg version="1.1" viewBox="0.0 0.0 1284.0 1066.0" fill="none" stroke="none" stroke-linecap="square" stroke-miterlimit="10" xmlns:xlink="http://www.w3.org/1999/xlink" xmlns="http://www.w3.org/2000/svg"><clipPath id="p.0"><path d="m0 0l1284.0 0l0 1066.0l-1284.0 0l0 -1066.0z" clip-rule="nonzero"/></clipPath><g clip-path="url(#p.0)"><path fill="#000000" fill-opacity="0.0" d="m0 0l1284.0 0l0 1066.0l-1284.0 0z" fill-rule="evenodd"/><path fill="#cccccc" d="m334.7244 595.2756l0 0c0 -169.70361 137.57199 -307.27557 307.2756 -307.27557l0 0c81.49457 0 159.6513 32.373596 217.27667 89.99893c57.625305 57.625366 89.9989 135.78214 89.9989 217.27664l0 0c0 169.70361 -137.57196 307.27563 -307.27557 307.27563l0 0c-169.70361 0 -307.2756 -137.57202 -307.2756 -307.27563z" fill-rule="evenodd"/><path stroke="#000000" stroke-width="4.0" stroke-linejoin="round" stroke-linecap="butt" d="m334.7244 595.2756l0 0c0 -169.70361 137.57199 -307.27557 307.2756 -307.27557l0 0c81.49457 0 159.6513 32.373596 217.27667 89.99893c57.625305 57.625366 89.9989 135.78214 89.9989 217.27664l0 0c0 169.70361 -137.57196 307.27563 -307.27557 307.27563l0 0c-169.70361 0 -307.2756 -137.57202 -307.2756 -307.27563z" fill-rule="evenodd"/><path fill="#666666" d="m408.853 635.8876l0 0c0 -51.288452 41.577545 -92.86597 92.86603 -92.86597l0 0c24.629608 0 48.250397 9.784058 65.66617 27.19983c17.415771 17.41571 27.19983 41.03656 27.19983 65.66614l0 0c0 51.288513 -41.577515 92.86603 -92.866 92.86603l0 0c-51.288483 0 -92.86603 -41.577515 -92.86603 -92.86603z" fill-rule="evenodd"/><path stroke="#000000" stroke-width="4.0" stroke-linejoin="round" stroke-linecap="butt" d="m408.853 635.8876l0 0c0 -51.288452 41.577545 -92.86597 92.86603 -92.86597l0 0c24.629608 0 48.250397 9.784058 65.66617 27.19983c17.415771 17.41571 27.19983 41.03656 27.19983 65.66614l0 0c0 51.288513 -41.577515 92.86603 -92.866 92.86603l0 0c-51.288483 0 -92.86603 -41.577515 -92.86603 -92.86603z" fill-rule="evenodd"/><path fill="#666666" d="m694.29034 635.8876l0 0c0 -51.288452 41.577515 -92.86597 92.86603 -92.86597l0 0c24.629578 0 48.250427 9.784058 65.66614 27.19983c17.415771 17.41571 27.19983 41.03656 27.19983 65.66614l0 0c0 51.288513 -41.577515 92.86603 -92.86597 92.86603l0 0c-51.288513 0 -92.86603 -41.577515 -92.86603 -92.86603z" fill-rule="evenodd"/><path stroke="#000000" stroke-width="4.0" stroke-linejoin="round" stroke-linecap="butt" d="m694.29034 635.8876l0 0c0 -51.288452 41.577515 -92.86597 92.86603 -92.86597l0 0c24.629578 0 48.250427 9.784058 65.66614 27.19983c17.415771 17.41571 27.19983 41.03656 27.19983 65.66614l0 0c0 51.288513 -41.577515 92.86603 -92.86597 92.86603l0 0c-51.288513 0 -92.86603 -41.577515 -92.86603 -92.86603z" fill-rule="evenodd"/><path fill="#666666" d="m637.2126 308.7874l0 0c0 -2.6440125 2.1434326 -4.7874146 4.7874146 -4.7874146l0 0c1.2697144 0 2.4873657 0.50439453 3.3851929 1.4021912c0.89782715 0.89782715 1.4022217 2.115509 1.4022217 3.3852234l0 0c0 2.643982 -2.1434326 4.787384 -4.7874146 4.787384l0 0c-2.643982 0 -4.7874146 -2.143402 -4.7874146 -4.787384z" fill-rule="evenodd"/><path stroke="#000000" stroke-width="4.0" stroke-linejoin="round" stroke-linecap="butt" d="m637.2126 308.7874l0 0c0 -2.6440125 2.1434326 -4.7874146 4.7874146 -4.7874146l0 0c1.2697144 0 2.4873657 0.50439453 3.3851929 1.4021912c0.89782715 0.89782715 1.4022217 2.115509 1.4022217 3.3852234l0 0c0 2.643982 -2.1434326 4.787384 -4.7874146 4.787384l0 0c-2.643982 0 -4.7874146 -2.143402 -4.7874146 -4.787384z" fill-rule="evenodd"/><path fill="#666666" d="m352.55118 650.0289l0 0c0 -2.643982 2.143402 -4.7874146 4.7874146 -4.7874146l0 0c1.2696838 0 2.4873962 0.50439453 3.3851929 1.4022217c0.89782715 0.89782715 1.4021912 2.1154785 1.4021912 3.3851929l0 0c0 2.643982 -2.1433716 4.7874146 -4.787384 4.7874146l0 0c-2.6440125 0 -4.7874146 -2.1434326 -4.7874146 -4.7874146z" fill-rule="evenodd"/><path stroke="#000000" stroke-width="4.0" stroke-linejoin="round" stroke-linecap="butt" d="m352.55118 650.0289l0 0c0 -2.643982 2.143402 -4.7874146 4.7874146 -4.7874146l0 0c1.2696838 0 2.4873962 0.50439453 3.3851929 1.4022217c0.89782715 0.89782715 1.4021912 2.1154785 1.4021912 3.3851929l0 0c0 2.643982 -2.1433716 4.7874146 -4.787384 4.7874146l0 0c-2.6440125 0 -4.7874146 -2.1434326 -4.7874146 -4.7874146z" fill-rule="evenodd"/><path fill="#666666" d="m347.85303 596.07874l0 0c0 -2.643982 2.1433716 -4.7874146 4.787384 -4.7874146l0 0c1.2697144 0 2.4873962 0.50439453 3.3852234 1.4022217c0.89779663 0.89782715 1.4021912 2.1154785 1.4021912 3.3851929l0 0c0 2.644043 -2.143402 4.7874146 -4.7874146 4.7874146l0 0c-2.6440125 0 -4.787384 -2.1433716 -4.787384 -4.7874146z" fill-rule="evenodd"/><path stroke="#000000" stroke-width="4.0" stroke-linejoin="round" stroke-linecap="butt" d="m347.85303 596.07874l0 0c0 -2.643982 2.1433716 -4.7874146 4.787384 -4.7874146l0 0c1.2697144 0 2.4873962 0.50439453 3.3852234 1.4022217c0.89779663 0.89782715 1.4021912 2.1154785 1.4021912 3.3851929l0 0c0 2.644043 -2.143402 4.7874146 -4.7874146 4.7874146l0 0c-2.6440125 0 -4.787384 -2.1433716 -4.787384 -4.7874146z" fill-rule="evenodd"/><path fill="#666666" d="m637.2126 888.2493l0 0c0 -2.643982 2.1434326 -4.7874146 4.7874146 -4.7874146l0 0c1.2697144 0 2.4873657 0.50439453 3.3851929 1.4022217c0.89782715 0.89782715 1.4022217 2.1155396 1.4022217 3.3851929l0 0c0 2.644043 -2.1434326 4.7874146 -4.7874146 4.7874146l0 0c-2.643982 0 -4.7874146 -2.1433716 -4.7874146 -4.7874146z" fill-rule="evenodd"/><path stroke="#000000" stroke-width="4.0" stroke-linejoin="round" stroke-linecap="butt" d="m637.2126 888.2493l0 0c0 -2.643982 2.1434326 -4.7874146 4.7874146 -4.7874146l0 0c1.2697144 0 2.4873657 0.50439453 3.3851929 1.4022217c0.89782715 0.89782715 1.4022217 2.1155396 1.4022217 3.3851929l0 0c0 2.644043 -2.1434326 4.7874146 -4.7874146 4.7874146l0 0c-2.643982 0 -4.7874146 -2.1433716 -4.7874146 -4.7874146z" fill-rule="evenodd"/><path fill="#666666" d="m435.90027 803.2257l0 0c0 -2.643982 2.1433716 -4.7874146 4.787384 -4.7874146l0 0c1.2697144 0 2.4873962 0.50439453 3.3852234 1.4022217c0.89779663 0.89782715 1.4021912 2.1154785 1.4021912 3.3851929l0 0c0 2.644043 -2.143402 4.7874146 -4.7874146 4.7874146l0 0c-2.6440125 0 -4.787384 -2.1433716 -4.787384 -4.7874146z" fill-rule="evenodd"/><path stroke="#000000" stroke-width="4.0" stroke-linejoin="round" stroke-linecap="butt" d="m435.90027 803.2257l0 0c0 -2.643982 2.1433716 -4.7874146 4.787384 -4.7874146l0 0c1.2697144 0 2.4873962 0.50439453 3.3852234 1.4022217c0.89779663 0.89782715 1.4021912 2.1154785 1.4021912 3.3851929l0 0c0 2.644043 -2.143402 4.7874146 -4.7874146 4.7874146l0 0c-2.6440125 0 -4.787384 -2.1433716 -4.787384 -4.7874146z" fill-rule="evenodd"/><path fill="#666666" d="m396.08923 436.4357l0 0c0 -2.6440125 2.143402 -4.7874146 4.7874146 -4.7874146l0 0c1.2696838 0 2.4873962 0.50439453 3.3851929 1.4022217c0.89782715 0.89779663 1.4021912 2.1154785 1.4021912 3.3851929l0 0c0 2.6440125 -2.1433716 4.787384 -4.787384 4.787384l0 0c-2.6440125 0 -4.7874146 -2.1433716 -4.7874146 -4.787384z" fill-rule="evenodd"/><path stroke="#000000" stroke-width="4.0" stroke-linejoin="round" stroke-linecap="butt" d="m396.08923 436.4357l0 0c0 -2.6440125 2.143402 -4.7874146 4.7874146 -4.7874146l0 0c1.2696838 0 2.4873962 0.50439453 3.3851929 1.4022217c0.89782715 0.89779663 1.4021912 2.1154785 1.4021912 3.3851929l0 0c0 2.6440125 -2.1433716 4.787384 -4.787384 4.787384l0 0c-2.6440125 0 -4.7874146 -2.1433716 -4.7874146 -4.787384z" fill-rule="evenodd"/><path fill="#666666" d="m367.0866 703.1155l0 0c0 -2.643982 2.143402 -4.7874146 4.7874146 -4.7874146l0 0c1.2696838 0 2.4873962 0.50439453 3.3851929 1.4022217c0.89782715 0.89782715 1.4021912 2.1154785 1.4021912 3.3851929l0 0c0 2.644043 -2.1433716 4.7874146 -4.787384 4.7874146l0 0c-2.6440125 0 -4.7874146 -2.1433716 -4.7874146 -4.7874146z" fill-rule="evenodd"/><path stroke="#000000" stroke-width="4.0" stroke-linejoin="round" stroke-linecap="butt" d="m367.0866 703.1155l0 0c0 -2.643982 2.143402 -4.7874146 4.7874146 -4.7874146l0 0c1.2696838 0 2.4873962 0.50439453 3.3851929 1.4022217c0.89782715 0.89782715 1.4021912 2.1154785 1.4021912 3.3851929l0 0c0 2.644043 -2.1433716 4.7874146 -4.787384 4.7874146l0 0c-2.6440125 0 -4.7874146 -2.1433716 -4.7874146 -4.7874146z" fill-rule="evenodd"/><path fill="#666666" d="m367.0866 487.4357l0 0c0 -2.6440125 2.143402 -4.7874146 4.7874146 -4.7874146l0 0c1.2696838 0 2.4873962 0.50439453 3.3851929 1.4022217c0.89782715 0.89779663 1.4021912 2.1154785 1.4021912 3.3851929l0 0c0 2.6440125 -2.1433716 4.787384 -4.787384 4.787384l0 0c-2.6440125 0 -4.7874146 -2.1433716 -4.7874146 -4.787384z" fill-rule="evenodd"/><path stroke="#000000" stroke-width="4.0" stroke-linejoin="round" stroke-linecap="butt" d="m367.0866 487.4357l0 0c0 -2.6440125 2.143402 -4.7874146 4.7874146 -4.7874146l0 0c1.2696838 0 2.4873962 0.50439453 3.3851929 1.4022217c0.89782715 0.89779663 1.4021912 2.1154785 1.4021912 3.3851929l0 0c0 2.6440125 -2.1433716 4.787384 -4.787384 4.787384l0 0c-2.6440125 0 -4.7874146 -2.1433716 -4.7874146 -4.787384z" fill-rule="evenodd"/><path fill="#666666" d="m431.32547 394.4357l0 0c0 -2.6440125 2.1433716 -4.7874146 4.787384 -4.7874146l0 0c1.2697144 0 2.4873962 0.50439453 3.3852234 1.4022217c0.89779663 0.89779663 1.4021912 2.1154785 1.4021912 3.3851929l0 0c0 2.6440125 -2.143402 4.787384 -4.7874146 4.787384l0 0c-2.6440125 0 -4.787384 -2.1433716 -4.787384 -4.787384z" fill-rule="evenodd"/><path stroke="#000000" stroke-width="4.0" stroke-linejoin="round" stroke-linecap="butt" d="m431.32547 394.4357l0 0c0 -2.6440125 2.1433716 -4.7874146 4.787384 -4.7874146l0 0c1.2697144 0 2.4873962 0.50439453 3.3852234 1.4022217c0.89779663 0.89779663 1.4021912 2.1154785 1.4021912 3.3851929l0 0c0 2.6440125 -2.143402 4.787384 -4.7874146 4.787384l0 0c-2.6440125 0 -4.787384 -2.1433716 -4.787384 -4.787384z" fill-rule="evenodd"/><path fill="#666666" d="m379.6614 460.937l0 0c0 -2.6440125 2.143402 -4.7874146 4.7874146 -4.7874146l0 0c1.2696838 0 2.4873962 0.50439453 3.3851929 1.4022217c0.89782715 0.89779663 1.4021912 2.1154785 1.4021912 3.3851929l0 0c0 2.6440125 -2.1433716 4.787384 -4.787384 4.787384l0 0c-2.6440125 0 -4.7874146 -2.1433716 -4.7874146 -4.787384z" fill-rule="evenodd"/><path stroke="#000000" stroke-width="4.0" stroke-linejoin="round" stroke-linecap="butt" d="m379.6614 460.937l0 0c0 -2.6440125 2.143402 -4.7874146 4.7874146 -4.7874146l0 0c1.2696838 0 2.4873962 0.50439453 3.3851929 1.4022217c0.89782715 0.89779663 1.4021912 2.1154785 1.4021912 3.3851929l0 0c0 2.6440125 -2.1433716 4.787384 -4.787384 4.787384l0 0c-2.6440125 0 -4.7874146 -2.1433716 -4.7874146 -4.787384z" fill-rule="evenodd"/><path fill="#666666" d="m412.5853 412.4357l0 0c0 -2.6440125 2.143402 -4.7874146 4.7874146 -4.7874146l0 0c1.2696838 0 2.4873962 0.50439453 3.3851929 1.4022217c0.89782715 0.89779663 1.4021912 2.1154785 1.4021912 3.3851929l0 0c0 2.6440125 -2.1433716 4.787384 -4.787384 4.787384l0 0c-2.6440125 0 -4.7874146 -2.1433716 -4.7874146 -4.787384z" fill-rule="evenodd"/><path stroke="#000000" stroke-width="4.0" stroke-linejoin="round" stroke-linecap="butt" d="m412.5853 412.4357l0 0c0 -2.6440125 2.143402 -4.7874146 4.7874146 -4.7874146l0 0c1.2696838 0 2.4873962 0.50439453 3.3851929 1.4022217c0.89782715 0.89779663 1.4021912 2.1154785 1.4021912 3.3851929l0 0c0 2.6440125 -2.1433716 4.787384 -4.787384 4.787384l0 0c-2.6440125 0 -4.7874146 -2.1433716 -4.7874146 -4.787384z" fill-rule="evenodd"/><path fill="#666666" d="m354.42783 535.9344l0 0c0 -2.644043 2.143402 -4.7874146 4.787384 -4.7874146l0 0c1.2697144 0 2.4873962 0.50439453 3.3852234 1.4022217c0.89779663 0.89782715 1.4021912 2.1154785 1.4021912 3.3851929l0 0c0 2.643982 -2.143402 4.7874146 -4.7874146 4.7874146l0 0c-2.643982 0 -4.787384 -2.1434326 -4.787384 -4.7874146z" fill-rule="evenodd"/><path stroke="#000000" stroke-width="4.0" stroke-linejoin="round" stroke-linecap="butt" d="m354.42783 535.9344l0 0c0 -2.644043 2.143402 -4.7874146 4.787384 -4.7874146l0 0c1.2697144 0 2.4873962 0.50439453 3.3852234 1.4022217c0.89779663 0.89782715 1.4021912 2.1154785 1.4021912 3.3851929l0 0c0 2.643982 -2.143402 4.7874146 -4.7874146 4.7874146l0 0c-2.643982 0 -4.787384 -2.1434326 -4.787384 -4.7874146z" fill-rule="evenodd"/><path fill="#666666" d="m605.11285 881.7638l0 0c0 -2.644043 2.1433716 -4.7874146 4.7874146 -4.7874146l0 0c1.2697144 0 2.4873657 0.50439453 3.3851929 1.4022217c0.89782715 0.8977661 1.4022217 2.1154785 1.4022217 3.3851929l0 0c0 2.643982 -2.1434326 4.7874146 -4.7874146 4.7874146l0 0c-2.644043 0 -4.7874146 -2.1434326 -4.7874146 -4.7874146z" fill-rule="evenodd"/><path stroke="#000000" stroke-width="4.0" stroke-linejoin="round" stroke-linecap="butt" d="m605.11285 881.7638l0 0c0 -2.644043 2.1433716 -4.7874146 4.7874146 -4.7874146l0 0c1.2697144 0 2.4873657 0.50439453 3.3851929 1.4022217c0.89782715 0.8977661 1.4022217 2.1154785 1.4022217 3.3851929l0 0c0 2.643982 -2.1434326 4.7874146 -4.7874146 4.7874146l0 0c-2.644043 0 -4.7874146 -2.1434326 -4.7874146 -4.7874146z" fill-rule="evenodd"/><path fill="#666666" d="m415.58792 780.5276l0 0c0 -2.644043 2.143402 -4.7874146 4.7874146 -4.7874146l0 0c1.2696838 0 2.4873962 0.50439453 3.3851929 1.4021606c0.89782715 0.89782715 1.4021912 2.1155396 1.4021912 3.385254l0 0c0 2.643982 -2.1433716 4.7873535 -4.787384 4.7873535l0 0c-2.6440125 0 -4.7874146 -2.1433716 -4.7874146 -4.7873535z" fill-rule="evenodd"/><path stroke="#000000" stroke-width="4.0" stroke-linejoin="round" stroke-linecap="butt" d="m415.58792 780.5276l0 0c0 -2.644043 2.143402 -4.7874146 4.7874146 -4.7874146l0 0c1.2696838 0 2.4873962 0.50439453 3.3851929 1.4021606c0.89782715 0.89782715 1.4021912 2.1155396 1.4021912 3.385254l0 0c0 2.643982 -2.1433716 4.7873535 -4.787384 4.7873535l0 0c-2.6440125 0 -4.7874146 -2.1433716 -4.7874146 -4.7873535z" fill-rule="evenodd"/><path fill="#666666" d="m393.58792 754.1155l0 0c0 -2.643982 2.143402 -4.7874146 4.7874146 -4.7874146l0 0c1.2696838 0 2.4873962 0.50439453 3.3851929 1.4022217c0.89782715 0.89782715 1.4021912 2.1154785 1.4021912 3.3851929l0 0c0 2.644043 -2.1433716 4.7874146 -4.787384 4.7874146l0 0c-2.6440125 0 -4.7874146 -2.1433716 -4.7874146 -4.7874146z" fill-rule="evenodd"/><path stroke="#000000" stroke-width="4.0" stroke-linejoin="round" stroke-linecap="butt" d="m393.58792 754.1155l0 0c0 -2.643982 2.143402 -4.7874146 4.7874146 -4.7874146l0 0c1.2696838 0 2.4873962 0.50439453 3.3851929 1.4022217c0.89782715 0.89782715 1.4021912 2.1154785 1.4021912 3.3851929l0 0c0 2.644043 -2.1433716 4.7874146 -4.787384 4.7874146l0 0c-2.6440125 0 -4.7874146 -2.1433716 -4.7874146 -4.7874146z" fill-rule="evenodd"/><path fill="#666666" d="m360.5118 511.60367l0 0c0 -2.6440125 2.143402 -4.787384 4.7874146 -4.787384l0 0c1.2696838 0 2.4873657 0.504364 3.3851929 1.4021912c0.89779663 0.89779663 1.4021912 2.115509 1.4021912 3.3851929l0 0c0 2.6440125 -2.143402 4.787384 -4.787384 4.787384l0 0c-2.6440125 0 -4.7874146 -2.1433716 -4.7874146 -4.787384z" fill-rule="evenodd"/><path stroke="#000000" stroke-width="4.0" stroke-linejoin="round" stroke-linecap="butt" d="m360.5118 511.60367l0 0c0 -2.6440125 2.143402 -4.787384 4.7874146 -4.787384l0 0c1.2696838 0 2.4873657 0.504364 3.3851929 1.4021912c0.89779663 0.89779663 1.4021912 2.115509 1.4021912 3.3851929l0 0c0 2.6440125 -2.143402 4.787384 -4.787384 4.787384l0 0c-2.6440125 0 -4.7874146 -2.1433716 -4.7874146 -4.787384z" fill-rule="evenodd"/><path fill="#666666" d="m347.85303 566.0066l0 0c0 -2.644043 2.1433716 -4.7874146 4.787384 -4.7874146l0 0c1.2697144 0 2.4873962 0.50439453 3.3852234 1.4021606c0.89779663 0.89782715 1.4021912 2.1155396 1.4021912 3.385254l0 0c0 2.643982 -2.143402 4.7873535 -4.7874146 4.7873535l0 0c-2.6440125 0 -4.787384 -2.1433716 -4.787384 -4.7873535z" fill-rule="evenodd"/><path stroke="#000000" stroke-width="4.0" stroke-linejoin="round" stroke-linecap="butt" d="m347.85303 566.0066l0 0c0 -2.644043 2.1433716 -4.7874146 4.787384 -4.7874146l0 0c1.2697144 0 2.4873962 0.50439453 3.3852234 1.4021606c0.89779663 0.89782715 1.4021912 2.1155396 1.4021912 3.385254l0 0c0 2.643982 -2.143402 4.7873535 -4.7874146 4.7873535l0 0c-2.6440125 0 -4.787384 -2.1433716 -4.787384 -4.7873535z" fill-rule="evenodd"/><path fill="#666666" d="m379.6614 726.5276l0 0c0 -2.644043 2.143402 -4.7874146 4.7874146 -4.7874146l0 0c1.2696838 0 2.4873962 0.50439453 3.3851929 1.4021606c0.89782715 0.89782715 1.4021912 2.1155396 1.4021912 3.385254l0 0c0 2.643982 -2.1433716 4.7873535 -4.787384 4.7873535l0 0c-2.6440125 0 -4.7874146 -2.1433716 -4.7874146 -4.7873535z" fill-rule="evenodd"/><path stroke="#000000" stroke-width="4.0" stroke-linejoin="round" stroke-linecap="butt" d="m379.6614 726.5276l0 0c0 -2.644043 2.143402 -4.7874146 4.7874146 -4.7874146l0 0c1.2696838 0 2.4873962 0.50439453 3.3851929 1.4021606c0.89782715 0.89782715 1.4021912 2.1155396 1.4021912 3.385254l0 0c0 2.643982 -2.1433716 4.7873535 -4.787384 4.7873535l0 0c-2.6440125 0 -4.7874146 -2.1433716 -4.7874146 -4.7873535z" fill-rule="evenodd"/><path fill="#666666" d="m357.42783 676.5722l0 0c0 -2.644043 2.143402 -4.7874146 4.787384 -4.7874146l0 0c1.2697144 0 2.4873962 0.50439453 3.3852234 1.4021606c0.89779663 0.89782715 1.4021912 2.1155396 1.4021912 3.385254l0 0c0 2.643982 -2.143402 4.7873535 -4.7874146 4.7873535l0 0c-2.643982 0 -4.787384 -2.1433716 -4.787384 -4.7873535z" fill-rule="evenodd"/><path stroke="#000000" stroke-width="4.0" stroke-linejoin="round" stroke-linecap="butt" d="m357.42783 676.5722l0 0c0 -2.644043 2.143402 -4.7874146 4.787384 -4.7874146l0 0c1.2697144 0 2.4873962 0.50439453 3.3852234 1.4021606c0.89779663 0.89782715 1.4021912 2.1155396 1.4021912 3.385254l0 0c0 2.643982 -2.143402 4.7873535 -4.7874146 4.7873535l0 0c-2.643982 0 -4.787384 -2.1433716 -4.787384 -4.7873535z" fill-rule="evenodd"/><path fill="#666666" d="m347.85303 620.25854l0 0c0 -2.644043 2.1433716 -4.7874146 4.787384 -4.7874146l0 0c1.2697144 0 2.4873962 0.50439453 3.3852234 1.4022217c0.89779663 0.8977661 1.4021912 2.1154785 1.4021912 3.3851929l0 0c0 2.643982 -2.143402 4.7874146 -4.7874146 4.7874146l0 0c-2.6440125 0 -4.787384 -2.1434326 -4.787384 -4.7874146z" fill-rule="evenodd"/><path stroke="#000000" stroke-width="4.0" stroke-linejoin="round" stroke-linecap="butt" d="m347.85303 620.25854l0 0c0 -2.644043 2.1433716 -4.7874146 4.787384 -4.7874146l0 0c1.2697144 0 2.4873962 0.50439453 3.3852234 1.4022217c0.89779663 0.8977661 1.4021912 2.1154785 1.4021912 3.3851929l0 0c0 2.643982 -2.143402 4.7874146 -4.7874146 4.7874146l0 0c-2.6440125 0 -4.787384 -2.1434326 -4.787384 -4.7874146z" fill-rule="evenodd"/><path fill="#666666" d="m521.58795 859.33856l0 0c0 -2.643982 2.1433716 -4.7873535 4.7873535 -4.7873535l0 0c1.2697144 0 2.4874268 0.5043335 3.385254 1.4021606c0.8977661 0.89782715 1.4021606 2.1155396 1.4021606 3.3851929l0 0c0 2.644043 -2.1433716 4.7874146 -4.7874146 4.7874146l0 0c-2.643982 0 -4.7873535 -2.1433716 -4.7873535 -4.7874146z" fill-rule="evenodd"/><path stroke="#000000" stroke-width="4.0" stroke-linejoin="round" stroke-linecap="butt" d="m521.58795 859.33856l0 0c0 -2.643982 2.1433716 -4.7873535 4.7873535 -4.7873535l0 0c1.2697144 0 2.4874268 0.5043335 3.385254 1.4021606c0.8977661 0.89782715 1.4021606 2.1155396 1.4021606 3.3851929l0 0c0 2.644043 -2.1433716 4.7874146 -4.7874146 4.7874146l0 0c-2.643982 0 -4.7873535 -2.1433716 -4.7873535 -4.7874146z" fill-rule="evenodd"/><path fill="#666666" d="m494.58792 340.7874l0 0c0 -2.6440125 2.143402 -4.7874146 4.7874146 -4.7874146l0 0c1.2696838 0 2.4873962 0.50439453 3.3851929 1.4021912c0.89782715 0.89782715 1.4021912 2.115509 1.4021912 3.3852234l0 0c0 2.643982 -2.1433716 4.787384 -4.787384 4.787384l0 0c-2.6440125 0 -4.7874146 -2.143402 -4.7874146 -4.787384z" fill-rule="evenodd"/><path stroke="#000000" stroke-width="4.0" stroke-linejoin="round" stroke-linecap="butt" d="m494.58792 340.7874l0 0c0 -2.6440125 2.143402 -4.7874146 4.7874146 -4.7874146l0 0c1.2696838 0 2.4873962 0.50439453 3.3851929 1.4021912c0.89782715 0.89782715 1.4021912 2.115509 1.4021912 3.3852234l0 0c0 2.643982 -2.1433716 4.787384 -4.787384 4.787384l0 0c-2.6440125 0 -4.7874146 -2.143402 -4.7874146 -4.787384z" fill-rule="evenodd"/><path fill="#666666" d="m609.90027 308.7874l0 0c0 -2.6440125 2.1433716 -4.7874146 4.7874146 -4.7874146l0 0c1.2696533 0 2.4873657 0.50439453 3.3851929 1.4021912c0.89782715 0.89782715 1.4021606 2.115509 1.4021606 3.3852234l0 0c0 2.643982 -2.1433716 4.787384 -4.7873535 4.787384l0 0c-2.644043 0 -4.7874146 -2.143402 -4.7874146 -4.787384z" fill-rule="evenodd"/><path stroke="#000000" stroke-width="4.0" stroke-linejoin="round" stroke-linecap="butt" d="m609.90027 308.7874l0 0c0 -2.6440125 2.1433716 -4.7874146 4.7874146 -4.7874146l0 0c1.2696533 0 2.4873657 0.50439453 3.3851929 1.4021912c0.89782715 0.89782715 1.4021606 2.115509 1.4021606 3.3852234l0 0c0 2.643982 -2.1433716 4.787384 -4.7873535 4.787384l0 0c-2.644043 0 -4.7874146 -2.143402 -4.7874146 -4.787384z" fill-rule="evenodd"/><path fill="#666666" d="m451.58792 372.2126l0 0c0 -2.643982 2.143402 -4.787384 4.7874146 -4.787384l0 0c1.2696838 0 2.4873962 0.50439453 3.3851929 1.4021912c0.89782715 0.89782715 1.4021912 2.115509 1.4021912 3.3851929l0 0c0 2.6440125 -2.1433716 4.7874146 -4.787384 4.7874146l0 0c-2.6440125 0 -4.7874146 -2.143402 -4.7874146 -4.7874146z" fill-rule="evenodd"/><path stroke="#000000" stroke-width="4.0" stroke-linejoin="round" stroke-linecap="butt" d="m451.58792 372.2126l0 0c0 -2.643982 2.143402 -4.787384 4.7874146 -4.787384l0 0c1.2696838 0 2.4873962 0.50439453 3.3851929 1.4021912c0.89782715 0.89782715 1.4021912 2.115509 1.4021912 3.3851929l0 0c0 2.6440125 -2.1433716 4.7874146 -4.787384 4.7874146l0 0c-2.6440125 0 -4.7874146 -2.143402 -4.7874146 -4.7874146z" fill-rule="evenodd"/><path fill="#666666" d="m550.58795 320.18896l0 0c0 -2.6440125 2.1433716 -4.787384 4.7873535 -4.787384l0 0c1.2697144 0 2.4874268 0.50439453 3.385254 1.4021912c0.8977661 0.89782715 1.4021606 2.115509 1.4021606 3.3851929l0 0c0 2.6440125 -2.1433716 4.7874146 -4.7874146 4.7874146l0 0c-2.643982 0 -4.7873535 -2.143402 -4.7873535 -4.7874146z" fill-rule="evenodd"/><path stroke="#000000" stroke-width="4.0" stroke-linejoin="round" stroke-linecap="butt" d="m550.58795 320.18896l0 0c0 -2.6440125 2.1433716 -4.787384 4.7873535 -4.787384l0 0c1.2697144 0 2.4874268 0.50439453 3.385254 1.4021912c0.8977661 0.89782715 1.4021606 2.115509 1.4021606 3.3851929l0 0c0 2.6440125 -2.1433716 4.7874146 -4.7874146 4.7874146l0 0c-2.643982 0 -4.7873535 -2.143402 -4.7873535 -4.7874146z" fill-rule="evenodd"/><path fill="#666666" d="m582.58795 310.61417l0 0c0 -2.6440125 2.1433716 -4.787384 4.7873535 -4.787384l0 0c1.2697144 0 2.4874268 0.504364 3.385254 1.4021912c0.8977661 0.89779663 1.4021606 2.115509 1.4021606 3.3851929l0 0c0 2.6440125 -2.1433716 4.7874146 -4.7874146 4.7874146l0 0c-2.643982 0 -4.7873535 -2.143402 -4.7873535 -4.7874146z" fill-rule="evenodd"/><path stroke="#000000" stroke-width="4.0" stroke-linejoin="round" stroke-linecap="butt" d="m582.58795 310.61417l0 0c0 -2.6440125 2.1433716 -4.787384 4.7873535 -4.787384l0 0c1.2697144 0 2.4874268 0.504364 3.385254 1.4021912c0.8977661 0.89779663 1.4021606 2.115509 1.4021606 3.3851929l0 0c0 2.6440125 -2.1433716 4.7874146 -4.7874146 4.7874146l0 0c-2.643982 0 -4.7873535 -2.143402 -4.7873535 -4.7874146z" fill-rule="evenodd"/><path fill="#666666" d="m470.58792 356.7874l0 0c0 -2.6440125 2.143402 -4.7874146 4.7874146 -4.7874146l0 0c1.2696838 0 2.4873962 0.50439453 3.3851929 1.4021912c0.89782715 0.89782715 1.4021912 2.115509 1.4021912 3.3852234l0 0c0 2.643982 -2.1433716 4.787384 -4.787384 4.787384l0 0c-2.6440125 0 -4.7874146 -2.143402 -4.7874146 -4.787384z" fill-rule="evenodd"/><path stroke="#000000" stroke-width="4.0" stroke-linejoin="round" stroke-linecap="butt" d="m470.58792 356.7874l0 0c0 -2.6440125 2.143402 -4.7874146 4.7874146 -4.7874146l0 0c1.2696838 0 2.4873962 0.50439453 3.3851929 1.4021912c0.89782715 0.89782715 1.4021912 2.115509 1.4021912 3.3852234l0 0c0 2.643982 -2.1433716 4.787384 -4.787384 4.787384l0 0c-2.6440125 0 -4.7874146 -2.143402 -4.7874146 -4.787384z" fill-rule="evenodd"/><path fill="#666666" d="m521.58795 331.2126l0 0c0 -2.643982 2.1433716 -4.787384 4.7873535 -4.787384l0 0c1.2697144 0 2.4874268 0.50439453 3.385254 1.4021912c0.8977661 0.89782715 1.4021606 2.115509 1.4021606 3.3851929l0 0c0 2.6440125 -2.1433716 4.7874146 -4.7874146 4.7874146l0 0c-2.643982 0 -4.7873535 -2.143402 -4.7873535 -4.7874146z" fill-rule="evenodd"/><path stroke="#000000" stroke-width="4.0" stroke-linejoin="round" stroke-linecap="butt" d="m521.58795 331.2126l0 0c0 -2.643982 2.1433716 -4.787384 4.7873535 -4.787384l0 0c1.2697144 0 2.4874268 0.50439453 3.385254 1.4021912c0.8977661 0.89782715 1.4021606 2.115509 1.4021606 3.3851929l0 0c0 2.6440125 -2.1433716 4.7874146 -4.7874146 4.7874146l0 0c-2.643982 0 -4.7873535 -2.143402 -4.7873535 -4.7874146z" fill-rule="evenodd"/><path fill="#666666" d="m550.58795 870.3622l0 0c0 -2.643982 2.1433716 -4.7873535 4.7873535 -4.7873535l0 0c1.2697144 0 2.4874268 0.5043335 3.385254 1.4021606c0.8977661 0.89782715 1.4021606 2.1155396 1.4021606 3.3851929l0 0c0 2.644043 -2.1433716 4.7874146 -4.7874146 4.7874146l0 0c-2.643982 0 -4.7873535 -2.1433716 -4.7873535 -4.7874146z" fill-rule="evenodd"/><path stroke="#000000" stroke-width="4.0" stroke-linejoin="round" stroke-linecap="butt" d="m550.58795 870.3622l0 0c0 -2.643982 2.1433716 -4.7873535 4.7873535 -4.7873535l0 0c1.2697144 0 2.4874268 0.5043335 3.385254 1.4021606c0.8977661 0.89782715 1.4021606 2.1155396 1.4021606 3.3851929l0 0c0 2.644043 -2.1433716 4.7874146 -4.7874146 4.7874146l0 0c-2.643982 0 -4.7873535 -2.1433716 -4.7873535 -4.7874146z" fill-rule="evenodd"/><path fill="#666666" d="m451.58792 818.33856l0 0c0 -2.643982 2.143402 -4.7873535 4.7874146 -4.7873535l0 0c1.2696838 0 2.4873962 0.5043335 3.3851929 1.4021606c0.89782715 0.89782715 1.4021912 2.1155396 1.4021912 3.3851929l0 0c0 2.644043 -2.1433716 4.7874146 -4.787384 4.7874146l0 0c-2.6440125 0 -4.7874146 -2.1433716 -4.7874146 -4.7874146z" fill-rule="evenodd"/><path stroke="#000000" stroke-width="4.0" stroke-linejoin="round" stroke-linecap="butt" d="m451.58792 818.33856l0 0c0 -2.643982 2.143402 -4.7873535 4.7874146 -4.7873535l0 0c1.2696838 0 2.4873962 0.5043335 3.3851929 1.4021606c0.89782715 0.89782715 1.4021912 2.1155396 1.4021912 3.3851929l0 0c0 2.644043 -2.1433716 4.7874146 -4.787384 4.7874146l0 0c-2.6440125 0 -4.7874146 -2.1433716 -4.7874146 -4.7874146z" fill-rule="evenodd"/><path fill="#666666" d="m494.58792 849.7638l0 0c0 -2.644043 2.143402 -4.7874146 4.7874146 -4.7874146l0 0c1.2696838 0 2.4873962 0.50439453 3.3851929 1.4022217c0.89782715 0.8977661 1.4021912 2.1154785 1.4021912 3.3851929l0 0c0 2.643982 -2.1433716 4.7874146 -4.787384 4.7874146l0 0c-2.6440125 0 -4.7874146 -2.1434326 -4.7874146 -4.7874146z" fill-rule="evenodd"/><path stroke="#000000" stroke-width="4.0" stroke-linejoin="round" stroke-linecap="butt" d="m494.58792 849.7638l0 0c0 -2.644043 2.143402 -4.7874146 4.7874146 -4.7874146l0 0c1.2696838 0 2.4873962 0.50439453 3.3851929 1.4022217c0.89782715 0.8977661 1.4021912 2.1154785 1.4021912 3.3851929l0 0c0 2.643982 -2.1433716 4.7874146 -4.787384 4.7874146l0 0c-2.6440125 0 -4.7874146 -2.1434326 -4.7874146 -4.7874146z" fill-rule="evenodd"/><path fill="#666666" d="m573.0131 879.937l0 0c0 -2.644043 2.1433716 -4.7874146 4.7874146 -4.7874146l0 0c1.2697144 0 2.4873657 0.50439453 3.3851929 1.4022217c0.89782715 0.89782715 1.4022217 2.1154785 1.4022217 3.3851929l0 0c0 2.643982 -2.1434326 4.7874146 -4.7874146 4.7874146l0 0c-2.644043 0 -4.7874146 -2.1434326 -4.7874146 -4.7874146z" fill-rule="evenodd"/><path stroke="#000000" stroke-width="4.0" stroke-linejoin="round" stroke-linecap="butt" d="m573.0131 879.937l0 0c0 -2.644043 2.1433716 -4.7874146 4.7874146 -4.7874146l0 0c1.2697144 0 2.4873657 0.50439453 3.3851929 1.4022217c0.89782715 0.89782715 1.4022217 2.1154785 1.4022217 3.3851929l0 0c0 2.643982 -2.1434326 4.7874146 -4.7874146 4.7874146l0 0c-2.644043 0 -4.7874146 -2.1434326 -4.7874146 -4.7874146z" fill-rule="evenodd"/><path fill="#666666" d="m470.58792 833.7638l0 0c0 -2.644043 2.143402 -4.7874146 4.7874146 -4.7874146l0 0c1.2696838 0 2.4873962 0.50439453 3.3851929 1.4022217c0.89782715 0.8977661 1.4021912 2.1154785 1.4021912 3.3851929l0 0c0 2.643982 -2.1433716 4.7874146 -4.787384 4.7874146l0 0c-2.6440125 0 -4.7874146 -2.1434326 -4.7874146 -4.7874146z" fill-rule="evenodd"/><path stroke="#000000" stroke-width="4.0" stroke-linejoin="round" stroke-linecap="butt" d="m470.58792 833.7638l0 0c0 -2.644043 2.143402 -4.7874146 4.7874146 -4.7874146l0 0c1.2696838 0 2.4873962 0.50439453 3.3851929 1.4022217c0.89782715 0.8977661 1.4021912 2.1154785 1.4021912 3.3851929l0 0c0 2.643982 -2.1433716 4.7874146 -4.787384 4.7874146l0 0c-2.6440125 0 -4.7874146 -2.1434326 -4.7874146 -4.7874146z" fill-rule="evenodd"/><path fill="#666666" d="m930.08923 650.0276l0 0c0 -2.644043 -2.1433716 -4.7874146 -4.7874146 -4.7874146l0 0c-1.2696533 0 -2.4873657 0.50439453 -3.3851929 1.4021606c-0.89782715 0.89782715 -1.4021606 2.1155396 -1.4021606 3.385254l0 0c0 2.643982 2.1433716 4.7873535 4.7873535 4.7873535l0 0c2.644043 0 4.7874146 -2.1433716 4.7874146 -4.7873535z" fill-rule="evenodd"/><path stroke="#000000" stroke-width="4.0" stroke-linejoin="round" stroke-linecap="butt" d="m930.08923 650.0276l0 0c0 -2.644043 -2.1433716 -4.7874146 -4.7874146 -4.7874146l0 0c-1.2696533 0 -2.4873657 0.50439453 -3.3851929 1.4021606c-0.89782715 0.89782715 -1.4021606 2.1155396 -1.4021606 3.385254l0 0c0 2.643982 2.1433716 4.7873535 4.7873535 4.7873535l0 0c2.644043 0 4.7874146 -2.1433716 4.7874146 -4.7873535z" fill-rule="evenodd"/><path fill="#666666" d="m934.7874 596.07745l0 0c0 -2.644043 -2.1434326 -4.7874146 -4.7874146 -4.7874146l0 0c-1.2697144 0 -2.4873657 0.50439453 -3.3851929 1.4021606c-0.89782715 0.89782715 -1.4022217 2.1155396 -1.4022217 3.385254l0 0c0 2.643982 2.1434326 4.7873535 4.7874146 4.7873535l0 0c2.643982 0 4.7874146 -2.1433716 4.7874146 -4.7873535z" fill-rule="evenodd"/><path stroke="#000000" stroke-width="4.0" stroke-linejoin="round" stroke-linecap="butt" d="m934.7874 596.07745l0 0c0 -2.644043 -2.1434326 -4.7874146 -4.7874146 -4.7874146l0 0c-1.2697144 0 -2.4873657 0.50439453 -3.3851929 1.4021606c-0.89782715 0.89782715 -1.4022217 2.1155396 -1.4022217 3.385254l0 0c0 2.643982 2.1434326 4.7873535 4.7874146 4.7873535l0 0c2.643982 0 4.7874146 -2.1433716 4.7874146 -4.7873535z" fill-rule="evenodd"/><path fill="#666666" d="m846.7402 803.2244l0 0c0 -2.644043 -2.1434326 -4.7874146 -4.7874146 -4.7874146l0 0c-1.2697144 0 -2.4873657 0.50439453 -3.3851929 1.4022217c-0.89782715 0.8977661 -1.4022217 2.1154785 -1.4022217 3.3851929l0 0c0 2.643982 2.1434326 4.7874146 4.7874146 4.7874146l0 0c2.643982 0 4.7874146 -2.1434326 4.7874146 -4.7874146z" fill-rule="evenodd"/><path stroke="#000000" stroke-width="4.0" stroke-linejoin="round" stroke-linecap="butt" d="m846.7402 803.2244l0 0c0 -2.644043 -2.1434326 -4.7874146 -4.7874146 -4.7874146l0 0c-1.2697144 0 -2.4873657 0.50439453 -3.3851929 1.4022217c-0.89782715 0.8977661 -1.4022217 2.1154785 -1.4022217 3.3851929l0 0c0 2.643982 2.1434326 4.7874146 4.7874146 4.7874146l0 0c2.643982 0 4.7874146 -2.1434326 4.7874146 -4.7874146z" fill-rule="evenodd"/><path fill="#666666" d="m886.5512 436.4344l0 0c0 -2.6440125 -2.1434326 -4.7874146 -4.7874146 -4.7874146l0 0c-1.2697144 0 -2.4874268 0.50439453 -3.3851929 1.4022217c-0.89782715 0.89779663 -1.4022217 2.1154785 -1.4022217 3.3851929l0 0c0 2.6440125 2.1433716 4.787384 4.7874146 4.787384l0 0c2.643982 0 4.7874146 -2.1433716 4.7874146 -4.787384z" fill-rule="evenodd"/><path stroke="#000000" stroke-width="4.0" stroke-linejoin="round" stroke-linecap="butt" d="m886.5512 436.4344l0 0c0 -2.6440125 -2.1434326 -4.7874146 -4.7874146 -4.7874146l0 0c-1.2697144 0 -2.4874268 0.50439453 -3.3851929 1.4022217c-0.89782715 0.89779663 -1.4022217 2.1154785 -1.4022217 3.3851929l0 0c0 2.6440125 2.1433716 4.787384 4.7874146 4.787384l0 0c2.643982 0 4.7874146 -2.1433716 4.7874146 -4.787384z" fill-rule="evenodd"/><path fill="#666666" d="m915.55383 703.1142l0 0c0 -2.644043 -2.1434326 -4.7874146 -4.7874146 -4.7874146l0 0c-1.2697144 0 -2.4874268 0.50439453 -3.3851929 1.4021606c-0.89782715 0.89782715 -1.4022217 2.1155396 -1.4022217 3.385254l0 0c0 2.643982 2.1433716 4.7873535 4.7874146 4.7873535l0 0c2.643982 0 4.7874146 -2.1433716 4.7874146 -4.7873535z" fill-rule="evenodd"/><path stroke="#000000" stroke-width="4.0" stroke-linejoin="round" stroke-linecap="butt" d="m915.55383 703.1142l0 0c0 -2.644043 -2.1434326 -4.7874146 -4.7874146 -4.7874146l0 0c-1.2697144 0 -2.4874268 0.50439453 -3.3851929 1.4021606c-0.89782715 0.89782715 -1.4022217 2.1155396 -1.4022217 3.385254l0 0c0 2.643982 2.1433716 4.7873535 4.7874146 4.7873535l0 0c2.643982 0 4.7874146 -2.1433716 4.7874146 -4.7873535z" fill-rule="evenodd"/><path fill="#666666" d="m915.55383 487.4344l0 0c0 -2.6440125 -2.1434326 -4.7874146 -4.7874146 -4.7874146l0 0c-1.2697144 0 -2.4874268 0.50439453 -3.3851929 1.4022217c-0.89782715 0.89779663 -1.4022217 2.1154785 -1.4022217 3.3851929l0 0c0 2.6440125 2.1433716 4.787384 4.7874146 4.787384l0 0c2.643982 0 4.7874146 -2.1433716 4.7874146 -4.787384z" fill-rule="evenodd"/><path stroke="#000000" stroke-width="4.0" stroke-linejoin="round" stroke-linecap="butt" d="m915.55383 487.4344l0 0c0 -2.6440125 -2.1434326 -4.7874146 -4.7874146 -4.7874146l0 0c-1.2697144 0 -2.4874268 0.50439453 -3.3851929 1.4022217c-0.89782715 0.89779663 -1.4022217 2.1154785 -1.4022217 3.3851929l0 0c0 2.6440125 2.1433716 4.787384 4.7874146 4.787384l0 0c2.643982 0 4.7874146 -2.1433716 4.7874146 -4.787384z" fill-rule="evenodd"/><path fill="#666666" d="m851.31494 394.4344l0 0c0 -2.6440125 -2.1433716 -4.7874146 -4.7873535 -4.7874146l0 0c-1.2697144 0 -2.4874268 0.50439453 -3.385254 1.4022217c-0.8977661 0.89779663 -1.4021606 2.1154785 -1.4021606 3.3851929l0 0c0 2.6440125 2.1433716 4.787384 4.7874146 4.787384l0 0c2.643982 0 4.7873535 -2.1433716 4.7873535 -4.787384z" fill-rule="evenodd"/><path stroke="#000000" stroke-width="4.0" stroke-linejoin="round" stroke-linecap="butt" d="m851.31494 394.4344l0 0c0 -2.6440125 -2.1433716 -4.7874146 -4.7873535 -4.7874146l0 0c-1.2697144 0 -2.4874268 0.50439453 -3.385254 1.4022217c-0.8977661 0.89779663 -1.4021606 2.1154785 -1.4021606 3.3851929l0 0c0 2.6440125 2.1433716 4.787384 4.7874146 4.787384l0 0c2.643982 0 4.7873535 -2.1433716 4.7873535 -4.787384z" fill-rule="evenodd"/><path fill="#666666" d="m902.979 460.9357l0 0c0 -2.6440125 -2.1433716 -4.7874146 -4.7874146 -4.7874146l0 0c-1.2697144 0 -2.4873657 0.50439453 -3.3851929 1.4022217c-0.89782715 0.89779663 -1.4022217 2.1154785 -1.4022217 3.3851929l0 0c0 2.6440125 2.1434326 4.787384 4.7874146 4.787384l0 0c2.644043 0 4.7874146 -2.1433716 4.7874146 -4.787384z" fill-rule="evenodd"/><path stroke="#000000" stroke-width="4.0" stroke-linejoin="round" stroke-linecap="butt" d="m902.979 460.9357l0 0c0 -2.6440125 -2.1433716 -4.7874146 -4.7874146 -4.7874146l0 0c-1.2697144 0 -2.4873657 0.50439453 -3.3851929 1.4022217c-0.89782715 0.89779663 -1.4022217 2.1154785 -1.4022217 3.3851929l0 0c0 2.6440125 2.1434326 4.787384 4.7874146 4.787384l0 0c2.644043 0 4.7874146 -2.1433716 4.7874146 -4.787384z" fill-rule="evenodd"/><path fill="#666666" d="m870.0551 412.4344l0 0c0 -2.6440125 -2.1433716 -4.7874146 -4.7874146 -4.7874146l0 0c-1.2696533 0 -2.4873657 0.50439453 -3.3851929 1.4022217c-0.89782715 0.89779663 -1.4022217 2.1154785 -1.4022217 3.3851929l0 0c0 2.6440125 2.1434326 4.787384 4.7874146 4.787384l0 0c2.644043 0 4.7874146 -2.1433716 4.7874146 -4.787384z" fill-rule="evenodd"/><path stroke="#000000" stroke-width="4.0" stroke-linejoin="round" stroke-linecap="butt" d="m870.0551 412.4344l0 0c0 -2.6440125 -2.1433716 -4.7874146 -4.7874146 -4.7874146l0 0c-1.2696533 0 -2.4873657 0.50439453 -3.3851929 1.4022217c-0.89782715 0.89779663 -1.4022217 2.1154785 -1.4022217 3.3851929l0 0c0 2.6440125 2.1434326 4.787384 4.7874146 4.787384l0 0c2.644043 0 4.7874146 -2.1433716 4.7874146 -4.787384z" fill-rule="evenodd"/><path fill="#666666" d="m928.2126 535.93304l0 0c0 -2.643982 -2.1433716 -4.7873535 -4.7874146 -4.7873535l0 0c-1.2696533 0 -2.4873657 0.5043335 -3.3851929 1.4021606c-0.89782715 0.89782715 -1.4021606 2.1155396 -1.4021606 3.3851929l0 0c0 2.644043 2.1433716 4.7874146 4.7873535 4.7874146l0 0c2.644043 0 4.7874146 -2.1433716 4.7874146 -4.7874146z" fill-rule="evenodd"/><path stroke="#000000" stroke-width="4.0" stroke-linejoin="round" stroke-linecap="butt" d="m928.2126 535.93304l0 0c0 -2.643982 -2.1433716 -4.7873535 -4.7874146 -4.7873535l0 0c-1.2696533 0 -2.4873657 0.5043335 -3.3851929 1.4021606c-0.89782715 0.89782715 -1.4021606 2.1155396 -1.4021606 3.3851929l0 0c0 2.644043 2.1433716 4.7874146 4.7873535 4.7874146l0 0c2.644043 0 4.7874146 -2.1433716 4.7874146 -4.7874146z" fill-rule="evenodd"/><path fill="#666666" d="m677.5276 881.76245l0 0c0 -2.643982 -2.1434326 -4.7874146 -4.7874146 -4.7874146l0 0c-1.2697144 0 -2.4874268 0.50439453 -3.3851929 1.4022217c-0.89782715 0.89782715 -1.4022217 2.1155396 -1.4022217 3.3851929l0 0c0 2.644043 2.1433716 4.7874146 4.7874146 4.7874146l0 0c2.643982 0 4.7874146 -2.1433716 4.7874146 -4.7874146z" fill-rule="evenodd"/><path stroke="#000000" stroke-width="4.0" stroke-linejoin="round" stroke-linecap="butt" d="m677.5276 881.76245l0 0c0 -2.643982 -2.1434326 -4.7874146 -4.7874146 -4.7874146l0 0c-1.2697144 0 -2.4874268 0.50439453 -3.3851929 1.4022217c-0.89782715 0.89782715 -1.4022217 2.1155396 -1.4022217 3.3851929l0 0c0 2.644043 2.1433716 4.7874146 4.7874146 4.7874146l0 0c2.643982 0 4.7874146 -2.1433716 4.7874146 -4.7874146z" fill-rule="evenodd"/><path fill="#666666" d="m867.0525 780.52625l0 0c0 -2.643982 -2.1433716 -4.7874146 -4.7874146 -4.7874146l0 0c-1.2696533 0 -2.4873657 0.50439453 -3.3851929 1.4022217c-0.89782715 0.89782715 -1.4022217 2.1154785 -1.4022217 3.3851929l0 0c0 2.643982 2.1434326 4.7874146 4.7874146 4.7874146l0 0c2.644043 0 4.7874146 -2.1434326 4.7874146 -4.7874146z" fill-rule="evenodd"/><path stroke="#000000" stroke-width="4.0" stroke-linejoin="round" stroke-linecap="butt" d="m867.0525 780.52625l0 0c0 -2.643982 -2.1433716 -4.7874146 -4.7874146 -4.7874146l0 0c-1.2696533 0 -2.4873657 0.50439453 -3.3851929 1.4022217c-0.89782715 0.89782715 -1.4022217 2.1154785 -1.4022217 3.3851929l0 0c0 2.643982 2.1434326 4.7874146 4.7874146 4.7874146l0 0c2.644043 0 4.7874146 -2.1434326 4.7874146 -4.7874146z" fill-rule="evenodd"/><path fill="#666666" d="m889.0525 754.1142l0 0c0 -2.644043 -2.1433716 -4.7874146 -4.7874146 -4.7874146l0 0c-1.2696533 0 -2.4873657 0.50439453 -3.3851929 1.4021606c-0.89782715 0.89782715 -1.4022217 2.1155396 -1.4022217 3.385254l0 0c0 2.643982 2.1434326 4.7873535 4.7874146 4.7873535l0 0c2.644043 0 4.7874146 -2.1433716 4.7874146 -4.7873535z" fill-rule="evenodd"/><path stroke="#000000" stroke-width="4.0" stroke-linejoin="round" stroke-linecap="butt" d="m889.0525 754.1142l0 0c0 -2.644043 -2.1433716 -4.7874146 -4.7874146 -4.7874146l0 0c-1.2696533 0 -2.4873657 0.50439453 -3.3851929 1.4021606c-0.89782715 0.89782715 -1.4022217 2.1155396 -1.4022217 3.385254l0 0c0 2.643982 2.1434326 4.7873535 4.7874146 4.7873535l0 0c2.644043 0 4.7874146 -2.1433716 4.7874146 -4.7873535z" fill-rule="evenodd"/><path fill="#666666" d="m922.1286 511.60236l0 0c0 -2.6440125 -2.1433716 -4.787384 -4.7874146 -4.787384l0 0c-1.2696533 0 -2.4873657 0.504364 -3.3851929 1.4021912c-0.89782715 0.89779663 -1.4021606 2.115509 -1.4021606 3.3851929l0 0c0 2.644043 2.1433716 4.7874146 4.7873535 4.7874146l0 0c2.644043 0 4.7874146 -2.1433716 4.7874146 -4.7874146z" fill-rule="evenodd"/><path stroke="#000000" stroke-width="4.0" stroke-linejoin="round" stroke-linecap="butt" d="m922.1286 511.60236l0 0c0 -2.6440125 -2.1433716 -4.787384 -4.7874146 -4.787384l0 0c-1.2696533 0 -2.4873657 0.504364 -3.3851929 1.4021912c-0.89782715 0.89779663 -1.4021606 2.115509 -1.4021606 3.3851929l0 0c0 2.644043 2.1433716 4.7874146 4.7873535 4.7874146l0 0c2.644043 0 4.7874146 -2.1433716 4.7874146 -4.7874146z" fill-rule="evenodd"/><path fill="#666666" d="m934.7874 566.00525l0 0c0 -2.643982 -2.1434326 -4.7874146 -4.7874146 -4.7874146l0 0c-1.2697144 0 -2.4873657 0.50439453 -3.3851929 1.4022217c-0.89782715 0.89782715 -1.4022217 2.1154785 -1.4022217 3.3851929l0 0c0 2.643982 2.1434326 4.7874146 4.7874146 4.7874146l0 0c2.643982 0 4.7874146 -2.1434326 4.7874146 -4.7874146z" fill-rule="evenodd"/><path stroke="#000000" stroke-width="4.0" stroke-linejoin="round" stroke-linecap="butt" d="m934.7874 566.00525l0 0c0 -2.643982 -2.1434326 -4.7874146 -4.7874146 -4.7874146l0 0c-1.2697144 0 -2.4873657 0.50439453 -3.3851929 1.4022217c-0.89782715 0.89782715 -1.4022217 2.1154785 -1.4022217 3.3851929l0 0c0 2.643982 2.1434326 4.7874146 4.7874146 4.7874146l0 0c2.643982 0 4.7874146 -2.1434326 4.7874146 -4.7874146z" fill-rule="evenodd"/><path fill="#666666" d="m902.979 726.52625l0 0c0 -2.643982 -2.1433716 -4.7874146 -4.7874146 -4.7874146l0 0c-1.2697144 0 -2.4873657 0.50439453 -3.3851929 1.4022217c-0.89782715 0.89782715 -1.4022217 2.1154785 -1.4022217 3.3851929l0 0c0 2.643982 2.1434326 4.7874146 4.7874146 4.7874146l0 0c2.644043 0 4.7874146 -2.1434326 4.7874146 -4.7874146z" fill-rule="evenodd"/><path stroke="#000000" stroke-width="4.0" stroke-linejoin="round" stroke-linecap="butt" d="m902.979 726.52625l0 0c0 -2.643982 -2.1433716 -4.7874146 -4.7874146 -4.7874146l0 0c-1.2697144 0 -2.4873657 0.50439453 -3.3851929 1.4022217c-0.89782715 0.89782715 -1.4022217 2.1154785 -1.4022217 3.3851929l0 0c0 2.643982 2.1434326 4.7874146 4.7874146 4.7874146l0 0c2.644043 0 4.7874146 -2.1434326 4.7874146 -4.7874146z" fill-rule="evenodd"/><path fill="#666666" d="m925.2126 676.57086l0 0c0 -2.643982 -2.1433716 -4.7874146 -4.7874146 -4.7874146l0 0c-1.2696533 0 -2.4873657 0.50439453 -3.3851929 1.4022217c-0.89782715 0.89782715 -1.4021606 2.1154785 -1.4021606 3.3851929l0 0c0 2.644043 2.1433716 4.7874146 4.7873535 4.7874146l0 0c2.644043 0 4.7874146 -2.1433716 4.7874146 -4.7874146z" fill-rule="evenodd"/><path stroke="#000000" stroke-width="4.0" stroke-linejoin="round" stroke-linecap="butt" d="m925.2126 676.57086l0 0c0 -2.643982 -2.1433716 -4.7874146 -4.7874146 -4.7874146l0 0c-1.2696533 0 -2.4873657 0.50439453 -3.3851929 1.4022217c-0.89782715 0.89782715 -1.4021606 2.1154785 -1.4021606 3.3851929l0 0c0 2.644043 2.1433716 4.7874146 4.7873535 4.7874146l0 0c2.644043 0 4.7874146 -2.1433716 4.7874146 -4.7874146z" fill-rule="evenodd"/><path fill="#666666" d="m934.7874 620.2572l0 0c0 -2.643982 -2.1434326 -4.7874146 -4.7874146 -4.7874146l0 0c-1.2697144 0 -2.4873657 0.50439453 -3.3851929 1.4022217c-0.89782715 0.89782715 -1.4022217 2.1155396 -1.4022217 3.3851929l0 0c0 2.644043 2.1434326 4.7874146 4.7874146 4.7874146l0 0c2.643982 0 4.7874146 -2.1433716 4.7874146 -4.7874146z" fill-rule="evenodd"/><path stroke="#000000" stroke-width="4.0" stroke-linejoin="round" stroke-linecap="butt" d="m934.7874 620.2572l0 0c0 -2.643982 -2.1434326 -4.7874146 -4.7874146 -4.7874146l0 0c-1.2697144 0 -2.4873657 0.50439453 -3.3851929 1.4022217c-0.89782715 0.89782715 -1.4022217 2.1155396 -1.4022217 3.3851929l0 0c0 2.644043 2.1434326 4.7874146 4.7874146 4.7874146l0 0c2.643982 0 4.7874146 -2.1433716 4.7874146 -4.7874146z" fill-rule="evenodd"/><path fill="#666666" d="m761.0525 859.3373l0 0c0 -2.644043 -2.1433716 -4.7874146 -4.7874146 -4.7874146l0 0c-1.2696533 0 -2.4873657 0.50439453 -3.3851929 1.4022217c-0.89782715 0.8977661 -1.4022217 2.1154785 -1.4022217 3.3851929l0 0c0 2.643982 2.1434326 4.7874146 4.7874146 4.7874146l0 0c2.644043 0 4.7874146 -2.1434326 4.7874146 -4.7874146z" fill-rule="evenodd"/><path stroke="#000000" stroke-width="4.0" stroke-linejoin="round" stroke-linecap="butt" d="m761.0525 859.3373l0 0c0 -2.644043 -2.1433716 -4.7874146 -4.7874146 -4.7874146l0 0c-1.2696533 0 -2.4873657 0.50439453 -3.3851929 1.4022217c-0.89782715 0.8977661 -1.4022217 2.1154785 -1.4022217 3.3851929l0 0c0 2.643982 2.1434326 4.7874146 4.7874146 4.7874146l0 0c2.644043 0 4.7874146 -2.1434326 4.7874146 -4.7874146z" fill-rule="evenodd"/><path fill="#666666" d="m788.0525 340.7861l0 0c0 -2.6440125 -2.1433716 -4.7874146 -4.7874146 -4.7874146l0 0c-1.2696533 0 -2.4873657 0.50439453 -3.3851929 1.4021912c-0.89782715 0.89782715 -1.4022217 2.115509 -1.4022217 3.3852234l0 0c0 2.643982 2.1434326 4.787384 4.7874146 4.787384l0 0c2.644043 0 4.7874146 -2.143402 4.7874146 -4.787384z" fill-rule="evenodd"/><path stroke="#000000" stroke-width="4.0" stroke-linejoin="round" stroke-linecap="butt" d="m788.0525 340.7861l0 0c0 -2.6440125 -2.1433716 -4.7874146 -4.7874146 -4.7874146l0 0c-1.2696533 0 -2.4873657 0.50439453 -3.3851929 1.4021912c-0.89782715 0.89782715 -1.4022217 2.115509 -1.4022217 3.3852234l0 0c0 2.643982 2.1434326 4.787384 4.7874146 4.787384l0 0c2.644043 0 4.7874146 -2.143402 4.7874146 -4.787384z" fill-rule="evenodd"/><path fill="#666666" d="m672.7402 308.7861l0 0c0 -2.6440125 -2.1434326 -4.7874146 -4.7874146 -4.7874146l0 0c-1.2697144 0 -2.4873657 0.50439453 -3.3851929 1.4021912c-0.89782715 0.89782715 -1.4022217 2.115509 -1.4022217 3.3852234l0 0c0 2.643982 2.1434326 4.787384 4.7874146 4.787384l0 0c2.643982 0 4.7874146 -2.143402 4.7874146 -4.787384z" fill-rule="evenodd"/><path stroke="#000000" stroke-width="4.0" stroke-linejoin="round" stroke-linecap="butt" d="m672.7402 308.7861l0 0c0 -2.6440125 -2.1434326 -4.7874146 -4.7874146 -4.7874146l0 0c-1.2697144 0 -2.4873657 0.50439453 -3.3851929 1.4021912c-0.89782715 0.89782715 -1.4022217 2.115509 -1.4022217 3.3852234l0 0c0 2.643982 2.1434326 4.787384 4.7874146 4.787384l0 0c2.643982 0 4.7874146 -2.143402 4.7874146 -4.787384z" fill-rule="evenodd"/><path fill="#666666" d="m831.0525 372.21127l0 0c0 -2.643982 -2.1433716 -4.787384 -4.7874146 -4.787384l0 0c-1.2696533 0 -2.4873657 0.50439453 -3.3851929 1.4021912c-0.89782715 0.89782715 -1.4022217 2.115509 -1.4022217 3.3851929l0 0c0 2.6440125 2.1434326 4.7874146 4.7874146 4.7874146l0 0c2.644043 0 4.7874146 -2.143402 4.7874146 -4.7874146z" fill-rule="evenodd"/><path stroke="#000000" stroke-width="4.0" stroke-linejoin="round" stroke-linecap="butt" d="m831.0525 372.21127l0 0c0 -2.643982 -2.1433716 -4.787384 -4.7874146 -4.787384l0 0c-1.2696533 0 -2.4873657 0.50439453 -3.3851929 1.4021912c-0.89782715 0.89782715 -1.4022217 2.115509 -1.4022217 3.3851929l0 0c0 2.6440125 2.1434326 4.7874146 4.7874146 4.7874146l0 0c2.644043 0 4.7874146 -2.143402 4.7874146 -4.7874146z" fill-rule="evenodd"/><path fill="#666666" d="m732.0525 320.18765l0 0c0 -2.6440125 -2.1433716 -4.787384 -4.7874146 -4.787384l0 0c-1.2696533 0 -2.4873657 0.50439453 -3.3851929 1.4021912c-0.89782715 0.89782715 -1.4022217 2.115509 -1.4022217 3.3851929l0 0c0 2.6440125 2.1434326 4.7874146 4.7874146 4.7874146l0 0c2.644043 0 4.7874146 -2.143402 4.7874146 -4.7874146z" fill-rule="evenodd"/><path stroke="#000000" stroke-width="4.0" stroke-linejoin="round" stroke-linecap="butt" d="m732.0525 320.18765l0 0c0 -2.6440125 -2.1433716 -4.787384 -4.7874146 -4.787384l0 0c-1.2696533 0 -2.4873657 0.50439453 -3.3851929 1.4021912c-0.89782715 0.89782715 -1.4022217 2.115509 -1.4022217 3.3851929l0 0c0 2.6440125 2.1434326 4.7874146 4.7874146 4.7874146l0 0c2.644043 0 4.7874146 -2.143402 4.7874146 -4.7874146z" fill-rule="evenodd"/><path fill="#666666" d="m700.0525 310.61285l0 0c0 -2.6440125 -2.1433716 -4.787384 -4.7874146 -4.787384l0 0c-1.2696533 0 -2.4873657 0.504364 -3.3851929 1.4021912c-0.89782715 0.89779663 -1.4022217 2.115509 -1.4022217 3.3851929l0 0c0 2.6440125 2.1434326 4.7874146 4.7874146 4.7874146l0 0c2.644043 0 4.7874146 -2.143402 4.7874146 -4.7874146z" fill-rule="evenodd"/><path stroke="#000000" stroke-width="4.0" stroke-linejoin="round" stroke-linecap="butt" d="m700.0525 310.61285l0 0c0 -2.6440125 -2.1433716 -4.787384 -4.7874146 -4.787384l0 0c-1.2696533 0 -2.4873657 0.504364 -3.3851929 1.4021912c-0.89782715 0.89779663 -1.4022217 2.115509 -1.4022217 3.3851929l0 0c0 2.6440125 2.1434326 4.7874146 4.7874146 4.7874146l0 0c2.644043 0 4.7874146 -2.143402 4.7874146 -4.7874146z" fill-rule="evenodd"/><path fill="#666666" d="m812.0525 356.7861l0 0c0 -2.6440125 -2.1433716 -4.7874146 -4.7874146 -4.7874146l0 0c-1.2696533 0 -2.4873657 0.50439453 -3.3851929 1.4021912c-0.89782715 0.89782715 -1.4022217 2.115509 -1.4022217 3.3852234l0 0c0 2.643982 2.1434326 4.787384 4.7874146 4.787384l0 0c2.644043 0 4.7874146 -2.143402 4.7874146 -4.787384z" fill-rule="evenodd"/><path stroke="#000000" stroke-width="4.0" stroke-linejoin="round" stroke-linecap="butt" d="m812.0525 356.7861l0 0c0 -2.6440125 -2.1433716 -4.7874146 -4.7874146 -4.7874146l0 0c-1.2696533 0 -2.4873657 0.50439453 -3.3851929 1.4021912c-0.89782715 0.89782715 -1.4022217 2.115509 -1.4022217 3.3852234l0 0c0 2.643982 2.1434326 4.787384 4.7874146 4.787384l0 0c2.644043 0 4.7874146 -2.143402 4.7874146 -4.787384z" fill-rule="evenodd"/><path fill="#666666" d="m761.0525 331.21127l0 0c0 -2.643982 -2.1433716 -4.787384 -4.7874146 -4.787384l0 0c-1.2696533 0 -2.4873657 0.50439453 -3.3851929 1.4021912c-0.89782715 0.89782715 -1.4022217 2.115509 -1.4022217 3.3851929l0 0c0 2.6440125 2.1434326 4.7874146 4.7874146 4.7874146l0 0c2.644043 0 4.7874146 -2.143402 4.7874146 -4.7874146z" fill-rule="evenodd"/><path stroke="#000000" stroke-width="4.0" stroke-linejoin="round" stroke-linecap="butt" d="m761.0525 331.21127l0 0c0 -2.643982 -2.1433716 -4.787384 -4.7874146 -4.787384l0 0c-1.2696533 0 -2.4873657 0.50439453 -3.3851929 1.4021912c-0.89782715 0.89782715 -1.4022217 2.115509 -1.4022217 3.3851929l0 0c0 2.6440125 2.1434326 4.7874146 4.7874146 4.7874146l0 0c2.644043 0 4.7874146 -2.143402 4.7874146 -4.7874146z" fill-rule="evenodd"/><path fill="#666666" d="m732.0525 870.3609l0 0c0 -2.644043 -2.1433716 -4.7874146 -4.7874146 -4.7874146l0 0c-1.2696533 0 -2.4873657 0.50439453 -3.3851929 1.4022217c-0.89782715 0.8977661 -1.4022217 2.1154785 -1.4022217 3.3851929l0 0c0 2.643982 2.1434326 4.7874146 4.7874146 4.7874146l0 0c2.644043 0 4.7874146 -2.1434326 4.7874146 -4.7874146z" fill-rule="evenodd"/><path stroke="#000000" stroke-width="4.0" stroke-linejoin="round" stroke-linecap="butt" d="m732.0525 870.3609l0 0c0 -2.644043 -2.1433716 -4.7874146 -4.7874146 -4.7874146l0 0c-1.2696533 0 -2.4873657 0.50439453 -3.3851929 1.4022217c-0.89782715 0.8977661 -1.4022217 2.1154785 -1.4022217 3.3851929l0 0c0 2.643982 2.1434326 4.7874146 4.7874146 4.7874146l0 0c2.644043 0 4.7874146 -2.1434326 4.7874146 -4.7874146z" fill-rule="evenodd"/><path fill="#666666" d="m831.0525 818.3373l0 0c0 -2.644043 -2.1433716 -4.7874146 -4.7874146 -4.7874146l0 0c-1.2696533 0 -2.4873657 0.50439453 -3.3851929 1.4022217c-0.89782715 0.8977661 -1.4022217 2.1154785 -1.4022217 3.3851929l0 0c0 2.643982 2.1434326 4.7874146 4.7874146 4.7874146l0 0c2.644043 0 4.7874146 -2.1434326 4.7874146 -4.7874146z" fill-rule="evenodd"/><path stroke="#000000" stroke-width="4.0" stroke-linejoin="round" stroke-linecap="butt" d="m831.0525 818.3373l0 0c0 -2.644043 -2.1433716 -4.7874146 -4.7874146 -4.7874146l0 0c-1.2696533 0 -2.4873657 0.50439453 -3.3851929 1.4022217c-0.89782715 0.8977661 -1.4022217 2.1154785 -1.4022217 3.3851929l0 0c0 2.643982 2.1434326 4.7874146 4.7874146 4.7874146l0 0c2.644043 0 4.7874146 -2.1434326 4.7874146 -4.7874146z" fill-rule="evenodd"/><path fill="#666666" d="m788.0525 849.76245l0 0c0 -2.643982 -2.1433716 -4.7874146 -4.7874146 -4.7874146l0 0c-1.2696533 0 -2.4873657 0.50439453 -3.3851929 1.4022217c-0.89782715 0.89782715 -1.4022217 2.1155396 -1.4022217 3.3851929l0 0c0 2.644043 2.1434326 4.7874146 4.7874146 4.7874146l0 0c2.644043 0 4.7874146 -2.1433716 4.7874146 -4.7874146z" fill-rule="evenodd"/><path stroke="#000000" stroke-width="4.0" stroke-linejoin="round" stroke-linecap="butt" d="m788.0525 849.76245l0 0c0 -2.643982 -2.1433716 -4.7874146 -4.7874146 -4.7874146l0 0c-1.2696533 0 -2.4873657 0.50439453 -3.3851929 1.4022217c-0.89782715 0.89782715 -1.4022217 2.1155396 -1.4022217 3.3851929l0 0c0 2.644043 2.1434326 4.7874146 4.7874146 4.7874146l0 0c2.644043 0 4.7874146 -2.1433716 4.7874146 -4.7874146z" fill-rule="evenodd"/><path fill="#666666" d="m709.6273 879.93567l0 0c0 -2.643982 -2.1434326 -4.7873535 -4.7874146 -4.7873535l0 0c-1.2697144 0 -2.4874268 0.50439453 -3.3851929 1.4021606c-0.89782715 0.89782715 -1.4022217 2.1155396 -1.4022217 3.3851929l0 0c0 2.644043 2.1433716 4.7874146 4.7874146 4.7874146l0 0c2.643982 0 4.7874146 -2.1433716 4.7874146 -4.7874146z" fill-rule="evenodd"/><path stroke="#000000" stroke-width="4.0" stroke-linejoin="round" stroke-linecap="butt" d="m709.6273 879.93567l0 0c0 -2.643982 -2.1434326 -4.7873535 -4.7874146 -4.7873535l0 0c-1.2697144 0 -2.4874268 0.50439453 -3.3851929 1.4021606c-0.89782715 0.89782715 -1.4022217 2.1155396 -1.4022217 3.3851929l0 0c0 2.644043 2.1433716 4.7874146 4.7874146 4.7874146l0 0c2.643982 0 4.7874146 -2.1433716 4.7874146 -4.7874146z" fill-rule="evenodd"/><path fill="#666666" d="m812.0525 833.76245l0 0c0 -2.643982 -2.1433716 -4.7874146 -4.7874146 -4.7874146l0 0c-1.2696533 0 -2.4873657 0.50439453 -3.3851929 1.4022217c-0.89782715 0.89782715 -1.4022217 2.1155396 -1.4022217 3.3851929l0 0c0 2.644043 2.1434326 4.7874146 4.7874146 4.7874146l0 0c2.644043 0 4.7874146 -2.1433716 4.7874146 -4.7874146z" fill-rule="evenodd"/><path stroke="#000000" stroke-width="4.0" stroke-linejoin="round" stroke-linecap="butt" d="m812.0525 833.76245l0 0c0 -2.643982 -2.1433716 -4.7874146 -4.7874146 -4.7874146l0 0c-1.2696533 0 -2.4873657 0.50439453 -3.3851929 1.4022217c-0.89782715 0.89782715 -1.4022217 2.1155396 -1.4022217 3.3851929l0 0c0 2.644043 2.1434326 4.7874146 4.7874146 4.7874146l0 0c2.644043 0 4.7874146 -2.1433716 4.7874146 -4.7874146z" fill-rule="evenodd"/><path fill="#666666" d="m586.25024 271.0l111.50049 0l0 10.015747l-111.50049 0z" fill-rule="evenodd"/><path stroke="#000000" stroke-width="4.0" stroke-linejoin="round" stroke-linecap="butt" d="m586.25024 271.0l111.50049 0l0 10.015747l-111.50049 0z" fill-rule="evenodd"/><path fill="#666666" d="m586.25024 255.0l111.50049 0l0 10.015747l-111.50049 0z" fill-rule="evenodd"/><path stroke="#000000" stroke-width="4.0" stroke-linejoin="round" stroke-linecap="butt" d="m586.25024 255.0l111.50049 0l0 10.015747l-111.50049 0z" fill-rule="evenodd"/><path fill="#666666" d="m586.25024 239.0l111.50049 0l0 10.015747l-111.50049 0z" fill-rule="evenodd"/><path stroke="#000000" stroke-width="4.0" stroke-linejoin="round" stroke-linecap="butt" d="m586.25024 239.0l111.50049 0l0 10.015747l-111.50049 0z" fill-rule="evenodd"/><path fill="#666666" d="m586.25024 223.0l111.50049 0l0 10.015747l-111.50049 0z" fill-rule="evenodd"/><path stroke="#000000" stroke-width="4.0" stroke-linejoin="round" stroke-linecap="butt" d="m586.25024 223.0l111.50049 0l0 10.015747l-111.50049 0z" fill-rule="evenodd"/><path fill="#666666" d="m586.25024 207.0l111.50049 0l0 10.015747l-111.50049 0z" fill-rule="evenodd"/><path stroke="#000000" stroke-width="4.0" stroke-linejoin="round" stroke-linecap="butt" d="m586.25024 207.0l111.50049 0l0 10.015747l-111.50049 0z" fill-rule="evenodd"/><path fill="#666666" d="m586.25024 191.0l111.50049 0l0 10.015747l-111.50049 0z" fill-rule="evenodd"/><path stroke="#000000" stroke-width="4.0" stroke-linejoin="round" stroke-linecap="butt" d="m586.25024 191.0l111.50049 0l0 10.015747l-111.50049 0z" fill-rule="evenodd"/><path fill="#666666" d="m599.5 184.01575l85.0 0l-17.0 -9.0l-51.0 0z" fill-rule="evenodd"/><path stroke="#000000" stroke-width="4.0" stroke-linejoin="round" stroke-linecap="butt" d="m599.5 184.01575l85.0 0l-17.0 -9.0l-51.0 0z" fill-rule="evenodd"/><path fill="#666666" d="m571.0079 784.0l0 0c0 -24.300537 31.78424 -44.0 70.99213 -44.0l0 0c39.207886 0 70.99213 19.699463 70.99213 44.0l0 0c0 24.300537 -31.78424 44.0 -70.99213 44.0l0 0c-39.207886 0 -70.99213 -19.699463 -70.99213 -44.0z" fill-rule="evenodd"/><path stroke="#000000" stroke-width="4.0" stroke-linejoin="round" stroke-linecap="butt" d="m571.0079 784.0l0 0c0 -24.300537 31.78424 -44.0 70.99213 -44.0l0 0c39.207886 0 70.99213 19.699463 70.99213 44.0l0 0c0 24.300537 -31.78424 44.0 -70.99213 44.0l0 0c-39.207886 0 -70.99213 -19.699463 -70.99213 -44.0z" fill-rule="evenodd"/><path fill="#999999" d="m593.0236 419.78223l19.464539 3.3070984l-35.905457 107.55905l-19.4646 -3.3070679z" fill-rule="evenodd"/><path stroke="#000000" stroke-width="4.0" stroke-linejoin="round" stroke-linecap="butt" d="m593.0236 419.78223l19.464539 3.3070984l-35.905457 107.55905l-19.4646 -3.3070679z" fill-rule="evenodd"/><path fill="#999999" d="m690.979 419.78223l-19.464539 3.3070984l35.905457 107.55905l19.4646 -3.3070679z" fill-rule="evenodd"/><path stroke="#000000" stroke-width="4.0" stroke-linejoin="round" stroke-linecap="butt" d="m690.979 419.78223l-19.464539 3.3070984l35.905457 107.55905l19.4646 -3.3070679z" fill-rule="evenodd"/><g filter="url(#shadowFilter-p.1)"><use xlink:href="#p.1" transform="matrix(1.0 0.0 0.0 1.0 0.0 2.0)"/></g><defs><filter id="shadowFilter-p.1" filterUnits="userSpaceOnUse"><feGaussianBlur in="SourceAlpha" stdDeviation="2.0" result="blur"/><feComponentTransfer in="blur" color-interpolation-filters="sRGB"><feFuncR type="linear" slope="0" intercept="0.0"/><feFuncG type="linear" slope="0" intercept="0.0"/><feFuncB type="linear" slope="0" intercept="0.0"/><feFuncA type="linear" slope="0.5" intercept="0"/></feComponentTransfer></filter></defs><g id="p.1"><path fill="#000000" fill-opacity="0.0" d="m450.0315 552.0l108.0 0l0 140.0l-108.0 0z" fill-rule="evenodd"/></g><path fill="#000000" fill-opacity="0.0" d="m738.0 552.0l82.04724 0l0 140.0l-82.04724 0z" fill-rule="evenodd"/></g></svg>